<svg width="114" height="259" viewBox="0 0 114 259" fill="none" xmlns="http://www.w3.org/2000/svg">
<path d="M91 70H22C29.2526 38.8 48.1898 10.3333 56.7518 0C70.0482 13.6 85.1241 52.3333 91 70Z" fill="url(#paint0_linear_425_942)"/>
<path d="M92.0002 73H22.0002C14.4002 77 15.5002 159.333 17.0002 200C32.0002 246 33.0002 243.5 70.0002 243C99.6002 242.6 100.667 160.167 97.5002 119C97.9002 97 94.0002 79.1667 92.0002 73Z" fill="url(#paint1_linear_425_942)"/>
<path d="M100.5 198C97.7 229.2 85.6667 241 80 243C91.6 242.6 106.5 253.5 112.5 259C116.1 218.2 106 201.333 100.5 198Z" fill="#FA8314"/>
<path d="M12.7578 198C15.5578 229.2 27.5911 241 33.2578 243C21.6578 242.6 6.75781 253.5 0.757812 259C-2.84219 218.2 7.25781 201.333 12.7578 198Z" fill="#FA8314"/>
<mask id="path-5-inside-1_425_942" fill="white">
<path d="M81 73C81 76.0204 80.3792 79.0112 79.1731 81.8017C77.967 84.5922 76.1992 87.1277 73.9706 89.2635C71.742 91.3992 69.0962 93.0934 66.1844 94.2492C63.2726 95.4051 60.1517 96 57 96C53.8483 96 50.7274 95.4051 47.8156 94.2492C44.9038 93.0934 42.258 91.3992 40.0294 89.2635C37.8008 87.1277 36.033 84.5922 34.8269 81.8017C33.6208 79.0112 33 76.0204 33 73L57 73H81Z"/>
</mask>
<path d="M81 73C81 76.0204 80.3792 79.0112 79.1731 81.8017C77.967 84.5922 76.1992 87.1277 73.9706 89.2635C71.742 91.3992 69.0962 93.0934 66.1844 94.2492C63.2726 95.4051 60.1517 96 57 96C53.8483 96 50.7274 95.4051 47.8156 94.2492C44.9038 93.0934 42.258 91.3992 40.0294 89.2635C37.8008 87.1277 36.033 84.5922 34.8269 81.8017C33.6208 79.0112 33 76.0204 33 73L57 73H81Z" fill="#249DD6" stroke="white" stroke-width="2" mask="url(#path-5-inside-1_425_942)"/>
<mask id="path-6-inside-2_425_942" fill="white">
<path d="M81 70C81 66.9796 80.3792 63.9888 79.1731 61.1983C77.967 58.4078 76.1992 55.8723 73.9706 53.7365C71.742 51.6008 69.0962 49.9066 66.1844 48.7508C63.2726 47.5949 60.1517 47 57 47C53.8483 47 50.7274 47.5949 47.8156 48.7508C44.9038 49.9066 42.258 51.6008 40.0294 53.7365C37.8008 55.8723 36.033 58.4078 34.8269 61.1983C33.6208 63.9888 33 66.9796 33 70L57 70H81Z"/>
</mask>
<path d="M81 70C81 66.9796 80.3792 63.9888 79.1731 61.1983C77.967 58.4078 76.1992 55.8723 73.9706 53.7365C71.742 51.6008 69.0962 49.9066 66.1844 48.7508C63.2726 47.5949 60.1517 47 57 47C53.8483 47 50.7274 47.5949 47.8156 48.7508C44.9038 49.9066 42.258 51.6008 40.0294 53.7365C37.8008 55.8723 36.033 58.4078 34.8269 61.1983C33.6208 63.9888 33 66.9796 33 70L57 70H81Z" fill="#249DD6" stroke="white" stroke-width="2" stroke-linejoin="round" mask="url(#path-6-inside-2_425_942)"/>
<path d="M22 70H91" stroke="white"/>
<circle cx="57" cy="138" r="38.5" fill="#0C5791" stroke="white"/>
<mask id="path-9-inside-3_425_942" fill="white">
<path d="M84.5772 165.577C77.2632 172.891 67.3434 177 57 177C46.6566 177 36.7368 172.891 29.4228 165.577L57 138L84.5772 165.577Z"/>
</mask>
<path d="M84.5772 165.577C77.2632 172.891 67.3434 177 57 177C46.6566 177 36.7368 172.891 29.4228 165.577L57 138L84.5772 165.577Z" fill="#FA8314" stroke="white" stroke-width="2" mask="url(#path-9-inside-3_425_942)"/>
<circle cx="57" cy="128" r="25.5" fill="#249DD6" stroke="white"/>
<path d="M71 256H45V215.841C45 213.629 45.336 211.44 45.9893 209.396C46.6426 207.353 47.6005 205.496 48.8076 203.933C50.0148 202.369 51.4482 201.129 53.0254 200.282C54.6026 199.436 56.2928 199 58 199C59.7072 199 61.3974 199.436 62.9746 200.282C64.5518 201.129 65.9852 202.369 67.1924 203.933C68.3995 205.496 69.3574 207.353 70.0107 209.396C70.664 211.44 71 213.629 71 215.841V256Z" fill="url(#paint2_linear_425_942)"/>
<path d="M57.5 154V245" stroke="white"/>
<defs>
<linearGradient id="paint0_linear_425_942" x1="56.5" y1="0" x2="56.5" y2="70" gradientUnits="userSpaceOnUse">
<stop stop-color="#D76800"/>
<stop offset="1" stop-color="#FF8C20"/>
</linearGradient>
<linearGradient id="paint1_linear_425_942" x1="57" y1="2.5" x2="57.3185" y2="243.19" gradientUnits="userSpaceOnUse">
<stop stop-color="#FF8C20"/>
<stop offset="1" stop-color="#D76800"/>
</linearGradient>
<linearGradient id="paint2_linear_425_942" x1="58" y1="199" x2="58" y2="256" gradientUnits="userSpaceOnUse">
<stop stop-color="#0F597C"/>
<stop offset="1" stop-color="#26BAFF"/>
</linearGradient>
</defs>
</svg>
