<svg width="81" height="80" viewBox="0 0 81 80" fill="none" xmlns="http://www.w3.org/2000/svg">
<rect x="0.5" width="80" height="80" rx="16" fill="#2B7FFF" fill-opacity="0.25"/>
<rect x="16.5" y="16" width="48" height="48" rx="8" fill="#2B7FFF"/>
<path d="M32.4999 34.6668L40.5 38.6667L48.5001 34.6668L40.5 30.6669L32.4999 34.6668ZM41.152 28.155L51.8095 33.5895C52.4575 33.9202 52.6908 34.6695 52.3308 35.2655C52.2053 35.4702 52.0252 35.6359 51.8108 35.7441L41.152 41.1786C40.9497 41.2802 40.7264 41.3331 40.5 41.3331C40.2736 41.3331 40.0503 41.2802 39.848 41.1786L29.1905 35.7441C28.5425 35.4134 28.3092 34.6641 28.6692 34.0682C28.7947 33.8634 28.9748 33.6977 29.1892 33.5895L39.848 28.155C40.2533 27.9483 40.7467 27.9483 41.152 28.155ZM41.152 46.5091C40.9503 46.6128 40.7268 46.6668 40.5 46.6668C40.2732 46.6668 40.0497 46.6128 39.848 46.5091L29.1905 40.98C28.5425 40.644 28.3092 39.8813 28.6692 39.276C28.7952 39.0696 28.9749 38.9014 29.1892 38.7894C29.3447 38.7087 29.5173 38.6666 29.6925 38.6666C29.8677 38.6666 30.0404 38.7087 30.1959 38.7894L39.8493 43.7959C40.2533 44.0065 40.7467 44.0065 41.152 43.7959L50.8041 38.7894C50.9595 38.7089 51.1319 38.667 51.3068 38.667C51.4817 38.667 51.6541 38.7089 51.8095 38.7894C52.4575 39.1253 52.6908 39.888 52.3308 40.4933C52.2048 40.6997 52.0251 40.8679 51.8108 40.98L41.152 46.5091ZM41.152 51.8423C40.9503 51.9459 40.7268 52 40.5 52C40.2732 52 40.0497 51.9459 39.848 51.8423L29.1905 46.3131C28.5425 45.9771 28.3092 45.2145 28.6692 44.6092C28.7952 44.4028 28.9749 44.2346 29.1892 44.1225C29.3447 44.0419 29.5173 43.9998 29.6925 43.9998C29.8677 43.9998 30.0404 44.0419 30.1959 44.1225L39.8493 49.129C40.2533 49.3397 40.7467 49.3397 41.152 49.129L50.8041 44.1225C50.9595 44.0421 51.1319 44.0001 51.3068 44.0001C51.4817 44.0001 51.6541 44.0421 51.8095 44.1225C52.4575 44.4585 52.6908 45.2212 52.3308 45.8265C52.2048 46.0328 52.0251 46.2011 51.8108 46.3131L41.152 51.8423Z" fill="white"/>
</svg>
